<?xml version="1.0" encoding="UTF-8"?>
<svg version="1.1" xmlns="http://www.w3.org/2000/svg" width="343" height="291">
<path d="M0 0 C113.19 0 226.38 0 343 0 C343 96.03 343 192.06 343 291 C229.81 291 116.62 291 0 291 C0 194.97 0 98.94 0 0 Z " fill="#262223" transform="translate(0,0)"/>
<path d="M0 0 C2.20327524 1.09506024 4.38825683 2.20746548 6.55859375 3.3671875 C28.32450913 14.76697493 52.79632582 16.62384429 77 17 C71.4090635 32.53691829 61.71870117 45.80106554 52 59 C51.47390137 59.71526855 50.94780273 60.43053711 50.40576172 61.16748047 C48.07148151 64.33894694 45.73449688 67.50841424 43.39697266 70.67749023 C41.59722601 73.11777087 39.79839663 75.55872431 38 78 C37.41718262 78.79051758 36.83436523 79.58103516 36.23388672 80.39550781 C25.71297234 94.12794639 25.71297234 94.12794639 17 109 C18.28998608 112.86995825 20.05277704 113.8494623 23.3125 116.25 C24.76076172 117.34054688 24.76076172 117.34054688 26.23828125 118.453125 C28.78724417 120.18580524 28.78724417 120.18580524 31.1640625 119.9609375 C33.45156497 118.76364898 34.50827541 117.43404945 36.0625 115.375 C46.58117702 102.86448839 64.14094564 97.22077278 80.00468445 95.82341766 C84.8703508 95.54319419 89.73708619 95.53388779 94.609375 95.5234375 C96.15343538 95.50906954 97.6974833 95.49330258 99.24151611 95.47622681 C103.26155118 95.43485631 107.28150893 95.40955039 111.30169678 95.38873291 C117.74642926 95.35258341 124.19096996 95.29127767 130.63550568 95.23024368 C132.86147547 95.21144752 135.08739397 95.19951455 137.31341553 95.18881226 C144.92283955 95.13905404 152.43569225 94.86832926 160 94 C158.91852138 114.90858669 145.82636577 132.39477889 130.78320312 146.0090332 C118.11023966 157.04250124 102.15366974 165.43328584 86 170 C84.81792969 170.34933594 83.63585937 170.69867188 82.41796875 171.05859375 C77.40645058 172.29944171 72.51183422 172.25681808 67.375 172.1875 C66.00214844 172.1865332 66.00214844 172.1865332 64.6015625 172.18554688 C61.01010278 172.16219201 57.60913006 172.10266805 54.05957031 171.50439453 C48.85364956 170.64615704 43.64086054 170.73232855 38.375 170.6875 C37.26253906 170.65849609 36.15007812 170.62949219 35.00390625 170.59960938 C18.30520268 170.47325132 4.99877925 177.81595268 -7 189 C-9.19823735 191.55333723 -11.17279191 194.17052587 -13 197 C-18.83876482 196.70806176 -22.97863372 194.08996101 -27 190 C-30.96946663 183.51110021 -30.73226222 177.39970241 -30 170 C-29.13431796 166.52228168 -28.09791492 163.207106 -26.875 159.83984375 C-25.99703061 156.99036273 -25.59059883 154.95280595 -26 152 C-28.83997285 149.66412147 -28.83997285 149.66412147 -32.16015625 150.2265625 C-36.3354984 151.0675775 -40.35643068 152.16973547 -44.4375 153.375 C-69.21723713 160.35709399 -95.24446678 163.15901661 -119.0625 151.25 C-131.50300651 143.70443618 -138.62109432 134.7527242 -142.26953125 120.76953125 C-144.62546187 108.61192138 -142.50589544 97.62001279 -139 86 C-138.81228027 85.34290039 -138.62456055 84.68580078 -138.43115234 84.00878906 C-133.93484041 68.38038676 -126.80405764 53.7244769 -120 39 C-119.34 39 -118.68 39 -118 39 C-117.29875 39.9075 -116.5975 40.815 -115.875 41.75 C-110.61898003 48.30456608 -101.92137258 50.60972123 -93.85205078 51.54248047 C-89.15907684 52.03915384 -84.52055079 52.14456867 -79.8046875 52.1328125 C-78.51636269 52.13479141 -78.51636269 52.13479141 -77.20201111 52.1368103 C-74.42630314 52.13871388 -71.65069759 52.13241358 -68.875 52.125 C-67.92934174 52.12411377 -66.98368347 52.12322754 -66.0093689 52.12231445 C-48.99030011 52.10362067 -32.00369739 51.72152017 -15 51 C-15.04640625 49.99710938 -15.0928125 48.99421875 -15.140625 47.9609375 C-14.99079265 43.74065961 -14.1344701 40.6032665 -12.75 36.625 C-12.33234375 35.40039062 -11.9146875 34.17578125 -11.484375 32.9140625 C-10.46126375 30.10193748 -9.28530607 27.40001387 -8.03125 24.68359375 C-5.79231024 19.73123692 -4.25010166 14.65341469 -2.75 9.4375 C-2.481875 8.52419922 -2.21375 7.61089844 -1.9375 6.66992188 C-1.28609721 4.44817306 -0.64037422 2.2249475 0 0 Z " fill="#FDFDFD" transform="translate(163,58)"/>
<path d="M0 0 C60.39 0 120.78 0 183 0 C183 39.93 183 79.86 183 121 C179.04 121 175.08 121 171 121 C168.06205369 122.75774196 168.06205369 122.75774196 166.1875 125.5 C162.27970319 129.93724025 158.60721902 132.77509641 153.4375 135.5 C152.83639404 135.82548828 152.23528809 136.15097656 151.6159668 136.48632812 C142.76620757 140.99070375 134.03907314 141.29703615 124.25 141.1875 C123.14011719 141.18685547 122.03023438 141.18621094 120.88671875 141.18554688 C112.68244459 141.1411194 112.68244459 141.1411194 109.58203125 140.5 C104.42987255 139.50230512 99.10704308 139.814091 93.87255859 139.81469727 C91.77029862 139.81252101 89.66857288 139.79436681 87.56640625 139.77539062 C80.41090085 139.74587485 73.91987806 140.11406432 67 142 C64.67075595 142.39498607 62.34403965 142.7007609 60 143 C68.51895906 115.37541432 89.82159782 89.43114544 105.93115234 65.6652832 C107.82473819 62.85483296 109.58640523 60.08420678 111 57 C105.92779994 53.35392704 105.92779994 53.35392704 99.99609375 51.9375 C97.59123031 52.46459336 95.33230287 53.20623306 93 54 C90.88651175 54.64339725 88.76820002 55.26870905 86.6484375 55.89111328 C85.16392251 56.32951708 83.68197376 56.7767336 82.203125 57.23388672 C68.02708643 61.5527398 49.51722853 62.80867808 36 56 C19.06627041 46.84173126 10.76977333 33.225278 5.12890625 15.26171875 C4.28403671 12.37304439 3.80556273 9.63931591 3.52734375 6.64453125 C3.33272512 2.73416623 3.33272512 2.73416623 0 0 Z " fill="#FEFEFE" transform="translate(160,0)"/>
<path d="M0 0 C52.14 0 104.28 0 158 0 C156.87479254 12.37728211 156.87479254 12.37728211 155.4765625 17.41015625 C155.1775 18.50263672 154.8784375 19.59511719 154.5703125 20.72070312 C154.10238281 22.37489258 154.10238281 22.37489258 153.625 24.0625 C153.32078125 25.16916016 153.0165625 26.27582031 152.703125 27.41601562 C152.09820465 29.60432791 151.48407376 31.79011684 150.86035156 33.97314453 C150.33755462 35.81242843 149.83002301 37.65626453 149.35058594 39.50732422 C147.96046641 44.6443995 145.96584046 49.30352568 143.64453125 54.08203125 C139.79138663 62.04661843 137.19065425 70.21883875 134.6875 78.6875 C134.0451755 80.82914575 133.39962717 82.96975303 132.7504425 85.10932922 C132.17209985 87.01984001 131.60272298 88.93305829 131.03393555 90.84643555 C130.19515139 93.40477675 129.29551094 95.65099664 128 98 C123.59329294 98.07559007 119.1869544 98.12926088 114.77978516 98.16479492 C113.28850717 98.17964702 111.79727089 98.19993422 110.30615234 98.22631836 C91.96327604 98.54214776 71.491481 96.46871178 57 84 C52.97441587 79.46154097 50.84907057 75.41413086 50.9375 69.3125 C50.94652344 68.50425781 50.95554688 67.69601563 50.96484375 66.86328125 C50.97644531 66.24839844 50.98804688 65.63351563 51 65 C48.69 65 46.38 65 44 65 C43.96044189 65.55905029 43.92088379 66.11810059 43.88012695 66.6940918 C43.39868255 72.15448811 42.32640291 76.77568884 40.1875 81.8125 C39.88545654 82.53187744 39.58341309 83.25125488 39.2722168 83.99243164 C33.63304713 96.87113176 25.68160384 108.59026145 17.8125 120.1875 C9.58017905 132.38660733 1.81232419 143.93269652 1 159 C0.67 159 0.34 159 0 159 C0 106.53 0 54.06 0 0 Z " fill="#FEFEFE" transform="translate(0,0)"/>
<path d="M0 0 C0.33 0 0.66 0 1 0 C1 54.12 1 108.24 1 164 C-65 164 -131 164 -199 164 C-188.47086521 139.43201883 -188.47086521 139.43201883 -182 132 C-181.50757813 131.36449219 -181.01515625 130.72898437 -180.5078125 130.07421875 C-176.87483612 125.82947174 -172.38587028 123.31191687 -167.5 120.75 C-166.89027344 120.42040283 -166.28054687 120.09080566 -165.65234375 119.7512207 C-150.10387929 112.07711116 -132.53672556 113.76003155 -115.74536133 114.13696289 C-85.18103382 114.76820483 -58.42847044 106.27008529 -36 85 C-24.54772449 73.83447943 -17.22896865 60.39200217 -10.8425293 45.90478516 C-10.06336093 44.14324602 -9.24992494 42.39697175 -8.43359375 40.65234375 C-6.61321876 36.01460365 -5.50836737 31.35779411 -4.4375 26.5 C-4.1132605 25.05536377 -4.1132605 25.05536377 -3.7824707 23.58154297 C-2.07072161 15.7591947 -0.83108348 7.96351633 0 0 Z " fill="#FEFEFE" transform="translate(342,127)"/>
<path d="M0 0 C1.8624113 3.72482259 2.99179363 7.15019452 4.1875 11.125 C8.68900577 25.09332926 17.79927381 35.0167041 30.8125 41.8125 C45.25019635 48.56990501 59.67228952 51.34767546 75.546875 51.1953125 C77.25269745 51.19106766 77.25269745 51.19106766 78.99298096 51.18673706 C82.578767 51.17565858 86.16429112 51.15057773 89.75 51.125 C92.20051719 51.11495424 94.65103835 51.1058312 97.1015625 51.09765625 C103.06779573 51.07575983 109.03387914 51.04240771 115 51 C115.05841064 51.9489917 115.11682129 52.8979834 115.17700195 53.87573242 C115.25909912 55.12717041 115.34119629 56.3786084 115.42578125 57.66796875 C115.50481689 58.90571045 115.58385254 60.14345215 115.6652832 61.41870117 C116.48012327 70.1370739 119.37173877 77.25467929 125 84 C127.81547774 86.16575211 130.28865441 87.1094896 133.625 88.375 C137.52535658 90.25294947 138.5633429 90.94355643 140 95 C140.50731758 101.18353124 139.87949217 106.84355484 139 113 C93.13 113 47.26 113 0 113 C0 75.71 0 38.42 0 0 Z " fill="#FEFEFE" transform="translate(0,178)"/>
<path d="M0 0 C2.31 0 4.62 0 7 0 C7 1.98 7 3.96 7 6 C6.67 6 6.34 6 6 6 C6 4.35 6 2.7 6 1 C4.02 1.99 2.04 2.98 0 4 C0 2.68 0 1.36 0 0 Z " fill="#4E4B4C" transform="translate(44,65)"/>
</svg>
