<?xml version="1.0" standalone="no"?>
<!DOCTYPE svg PUBLIC "-//W3C//DTD SVG 20010904//EN"
 "http://www.w3.org/TR/2001/REC-SVG-20010904/DTD/svg10.dtd">
<svg version="1.0" xmlns="http://www.w3.org/2000/svg"
 width="343.000000pt" height="291.000000pt" viewBox="0 0 343.000000 291.000000"
 preserveAspectRatio="xMidYMid meet">
<metadata>
Created by potrace 1.10, written by Peter Selinger 2001-2011
</metadata>
<g transform="translate(0.000000,291.000000) scale(0.100000,-0.100000)"
fill="#000000" stroke="none">
<path d="M1580 2883 c0 -74 -80 -352 -154 -531 -24 -59 -61 -163 -81 -231 -20
-68 -44 -139 -53 -158 l-16 -33 -140 0 c-207 0 -343 24 -461 79 -109 51 -156
107 -170 204 -7 42 -10 47 -34 47 -24 0 -27 -5 -43 -72 -25 -102 -90 -227
-224 -433 -65 -99 -132 -211 -150 -251 -55 -117 -69 -277 -38 -417 51 -229
202 -370 479 -444 97 -27 107 -27 380 -28 l280 0 1 -85 c1 -138 46 -217 154
-274 84 -44 96 -70 86 -184 -5 -65 -4 -73 10 -68 9 3 19 6 23 6 4 0 23 35 41
78 51 118 88 179 146 242 128 138 342 194 649 170 166 -13 256 -3 390 41 323
108 561 352 689 707 29 81 71 278 81 383 l7 66 -57 7 -56 6 -44 -45 c-58 -59
-149 -117 -221 -141 -63 -20 -61 -20 -524 -12 -164 2 -205 0 -259 -15 -35 -10
-65 -16 -68 -14 -15 16 247 455 468 784 l49 72 -55 31 -54 31 -85 -30 c-164
-58 -332 -76 -458 -50 -197 41 -363 219 -414 444 -25 107 -28 117 -52 133 -21
14 -22 13 -22 -15z m79 -567 c20 -24 146 -76 245 -101 126 -32 246 -47 383
-49 62 0 113 -4 113 -9 0 -16 -75 -156 -127 -237 -30 -46 -117 -168 -192 -270
-143 -193 -247 -343 -274 -396 l-16 -30 69 -52 c38 -29 72 -52 75 -52 3 0 33
28 68 63 72 73 170 128 284 159 71 19 116 22 483 29 223 4 417 10 433 14 24 6
27 5 27 -16 0 -36 -25 -121 -53 -182 -110 -241 -390 -468 -676 -549 -84 -24
-203 -28 -432 -13 -104 6 -140 5 -202 -9 -132 -30 -239 -96 -330 -205 -23 -28
-49 -51 -58 -51 -27 0 -105 57 -129 95 -30 49 -29 119 4 228 32 106 32 122 0
144 -25 16 -29 15 -107 -10 -413 -134 -778 -85 -953 130 -67 82 -88 148 -87
278 0 161 37 292 163 570 35 77 64 141 65 143 1 1 20 -15 41 -36 87 -86 217
-108 599 -98 149 3 300 9 336 13 l67 6 5 42 c4 24 36 125 72 226 37 101 69
196 72 211 6 31 15 35 32 14z"/>
</g>
</svg>
