<?xml version="1.0" encoding="UTF-8" standalone="no"?>
<svg
   xmlns:dc="http://purl.org/dc/elements/1.1/"
   xmlns:cc="http://creativecommons.org/ns#"
   xmlns:rdf="http://www.w3.org/1999/02/22-rdf-syntax-ns#"
   xmlns:svg="http://www.w3.org/2000/svg"
   xmlns="http://www.w3.org/2000/svg"
   xmlns:sodipodi="http://sodipodi.sourceforge.net/DTD/sodipodi-0.dtd"
   xmlns:inkscape="http://www.inkscape.org/namespaces/inkscape"
   width="1189mm"
   height="841mm"
   viewBox="0 0 1189 841"
   version="1.1"
   id="svg1471"
   sodipodi:docname="CCPP Logo initials.svg"
   inkscape:version="1.0.2 (e86c870879, 2021-01-15)"
   inkscape:export-filename="C:\Users\Eva\Eigene Datein\Inkscape\CCPP Logo 2021.png"
   inkscape:export-xdpi="96"
   inkscape:export-ydpi="96">
  <defs
     id="defs1465" />
  <sodipodi:namedview
     id="base"
     pagecolor="#ffffff"
     bordercolor="#666666"
     borderopacity="1.0"
     inkscape:pageopacity="0.0"
     inkscape:pageshadow="2"
     inkscape:zoom="0.12374369"
     inkscape:cx="1460.4886"
     inkscape:cy="1812.9582"
     inkscape:document-units="mm"
     inkscape:current-layer="layer1"
     inkscape:document-rotation="0"
     showgrid="false"
     inkscape:window-width="1920"
     inkscape:window-height="991"
     inkscape:window-x="-9"
     inkscape:window-y="-9"
     inkscape:window-maximized="1" />
  <metadata
     id="metadata1468">
    <rdf:RDF>
      <cc:Work
         rdf:about="">
        <dc:format>image/svg+xml</dc:format>
        <dc:type
           rdf:resource="http://purl.org/dc/dcmitype/StillImage" />
        <dc:title></dc:title>
      </cc:Work>
    </rdf:RDF>
  </metadata>
  <g
     inkscape:label="Layer 1"
     inkscape:groupmode="layer"
     id="layer1">
    <g
       id="g855">
      <g
         id="g1164"
         transform="matrix(17.013105,0,0,17.013105,-1770.532,-1153.8997)"
         style="fill:#000000">
        <path
           id="path1156"
           fill="none"
           stroke="#000000"
           stroke-width="0.0508"
           d="m 110.72887,108.01004 c 0,0 26.62379,5.23777 26.7286,5.2707 1.50212,0.39529 0.6392,-0.48107 0.23065,-0.96195 -1.04103,-0.975 -6.42358,-4.06169 -26.95925,-4.30875 z"
           sodipodi:nodetypes="cccc"
           style="fill:#000000;fill-opacity:1;stroke:none;stroke-width:0.269055;stroke-linejoin:round;stroke-miterlimit:4;stroke-dasharray:none;stroke-opacity:1" />
        <path
           id="path1158"
           fill="none"
           stroke="#000000"
           stroke-width="0.0508"
           d="m 140.46054,114.73188 c -0.0832,0.0811 -1.14559,0.84433 -0.32158,0.80858 0.62327,-0.0138 26.79279,-0.44629 27.36107,-0.54018 -23.19068,-3.17562 -26.94245,-0.36545 -27.03949,-0.2684 z"
           sodipodi:nodetypes="cccc"
           style="opacity:0.989333;fill:#000000;fill-opacity:1;stroke:none;stroke-width:0.269055;stroke-linejoin:round;stroke-miterlimit:4;stroke-dasharray:none;stroke-opacity:1" />
        <path
           id="path1160"
           fill="none"
           stroke="#000000"
           stroke-width="0.0508"
           d="m 110.50493,114.84216 c 0,0 27.09208,0.75382 27.4006,0.75402 0.78706,0.005 0.41151,-0.36307 0.27494,-0.53186 -1.57941,-1.698 -11.77807,-2.44906 -27.67554,-0.22216 z"
           sodipodi:nodetypes="cccc"
           style="fill:#000000;fill-opacity:1;stroke:none;stroke-width:0.269055;stroke-linejoin:round;stroke-miterlimit:4;stroke-dasharray:none;stroke-opacity:1" />
        <path
           id="path1162"
           fill="none"
           stroke="#000000"
           stroke-width="0.0508"
           d="m 167.5198,108.21421 c -0.37306,0.0728 -27.09088,5.06653 -27.09088,5.06653 -0.27672,0.0525 -0.73803,0.2437 -0.30321,-0.59295 0.35914,-0.72477 5.45847,-4.63822 27.39409,-4.47358 z"
           sodipodi:nodetypes="cccc"
           style="opacity:0.989333;fill:#000000;fill-opacity:1;stroke:none;stroke-width:0.269055;stroke-linejoin:round;stroke-miterlimit:4;stroke-dasharray:none;stroke-opacity:1" />
      </g>
      <path
         id="path1362"
         style="fill:#000000;fill-opacity:1;stroke:none;stroke-width:4.3595;stroke-linejoin:round;stroke-miterlimit:4;stroke-dasharray:none;stroke-opacity:1"
         inkscape:transform-center-x="-4.6245176"
         inkscape:transform-center-y="-23.390716"
         d="m 632.28263,28.248837 c -10.50835,80.038853 -46.5519,164.893083 -73.06753,241.671953 -4.95213,5.90402 -194.38025,12.07609 -183.18288,-81.54038 l -18.45218,-1.5543 c -5.21241,56.78501 -58.70479,126.96052 -79.63536,160.7852 7.30994,-2.58099 15.68682,-3.87378 25.13163,-3.87378 8.53996,0 16.0664,0.89261 22.62089,2.64628 7.11348,-18.53159 17.04215,-41.3459 32.99871,-76.43912 v -0.008 c 39.5162,27.87827 35.5191,45.38264 249.22822,32.20965 9.44712,-28.61135 38.49851,-125.65823 38.49851,-125.65823 52.61623,45.61579 176.42365,42.73247 180.58444,42.02952 -8.96092,42.80463 -120.95308,176.4207 -143.40107,227.75512 4.01176,6.00303 35.61314,29.89813 35.61314,29.89813 51.05923,-71.85697 155.12014,-63.74234 188.43557,-61.78097 37.86702,0.8582 54.99452,4.7842 119.18608,-3.81799 -5.5959,108.89343 -123.24568,167.75359 -185.19949,184.67339 -63.142,17.24464 -145.21935,-48.89202 -230.43327,63.82948 -68.74386,-20.69837 -18.08196,-97.30428 -23.70488,-109.67698 0,0 -10.56539,-7.41682 -14.60232,-10.71265 -164.26495,50.05967 -230.48569,9.71781 -255.14246,-40.3637 -0.20283,0.0324 -0.42555,0.0416 -0.62977,0.0725 -5.11244,1.06289 -10.70415,1.60212 -16.77835,1.60212 -12.76751,0 -23.29038,-1.84462 -31.57199,-5.53168 -4.22548,-1.88122 -7.71923,-4.13136 -10.48945,-6.7432 16.06319,61.51807 80.14303,124.75453 271.78531,106.87925 -0.33548,12.56055 -7.10246,71.78587 40.33179,92.28487 8.9269,4.48896 25.95196,3.48477 16.3798,61.72519 8.4771,0.002 13.89296,-2.51075 13.89296,-2.51075 21.23958,-43.35333 32.82069,-132.39108 185.98857,-118.56435 159.61292,12.9434 280.55595,-96.52607 290.68385,-295.05181 l -27.6504,-2.91727 c -23.3984,3.2402 -45.3234,68.5912 -149.9769,47.62499 -9.06045,-1.62967 -51.49375,-10.77356 -116.94627,6.89469 0.2383,-7.27663 34.88454,-70.58712 124.23946,-210.70574 0,0 -19.0564,-11.25103 -28.63876,-16.10085 C 867.3496,169.06911 667.53854,240.04751 646.24721,39.695478 Z" />
      <text
         xml:space="preserve"
         style="font-style:normal;font-variant:normal;font-weight:normal;font-stretch:normal;font-size:189.317px;line-height:1.25;font-family:Impact;-inkscape-font-specification:'Impact, @wght=700,wdth=100.0';font-variant-ligatures:normal;font-variant-caps:normal;font-variant-numeric:normal;font-variant-east-asian:normal;font-variation-settings:'wdth' 100, 'wght' 700;letter-spacing:22.6419px;fill:#000000;fill-opacity:1;stroke:none;stroke-width:4.73294"
         x="91.124199"
         y="546.88287"
         id="text1170"
         transform="scale(1.119862,0.89296718)"><tspan
           sodipodi:role="line"
           id="tspan1168"
           x="91.124199"
           y="546.88287"
           style="font-style:normal;font-variant:normal;font-weight:normal;font-stretch:normal;font-size:189.317px;font-family:Impact;-inkscape-font-specification:'Impact, @wght=700,wdth=100.0';font-variant-ligatures:normal;font-variant-caps:normal;font-variant-numeric:normal;font-variant-east-asian:normal;font-variation-settings:'wdth' 100, 'wght' 700;fill:#000000;stroke-width:4.73294">CCPP</tspan></text>
    </g>
  </g>
</svg>
